<?xml version="1.0" standalone="no"?>
<!DOCTYPE svg PUBLIC "-//W3C//DTD SVG 20010904//EN"
 "http://www.w3.org/TR/2001/REC-SVG-20010904/DTD/svg10.dtd">
<svg version="1.0" xmlns="http://www.w3.org/2000/svg"
 width="502.000000pt" height="626.000000pt" viewBox="0 0 502.000000 626.000000"
 preserveAspectRatio="xMidYMid meet">
<metadata>
Created by potrace 1.16, written by Peter Selinger 2001-2019
</metadata>
<g transform="translate(0.000000,626.000000) scale(0.100000,-0.100000)"
fill="#000000" stroke="none">
<path d="M0 3130 l0 -3130 2510 0 2510 0 0 3130 0 3130 -2510 0 -2510 0 0
-3130z m2524 2589 c56 -16 143 -106 185 -194 44 -92 77 -224 91 -370 32 -325
-64 -701 -221 -865 -47 -49 -52 -52 -87 -46 -100 18 -138 18 -171 1 l-33 -17
-45 48 c-54 56 -114 178 -142 287 -117 455 43 1059 306 1153 47 16 67 17 117
3z m321 -30 c85 -15 127 -27 142 -42 34 -30 99 -172 122 -262 31 -129 41 -215
40 -362 -1 -179 -13 -223 -22 -83 -14 220 -60 411 -135 560 -52 104 -57 108
-169 140 -40 12 -85 32 -100 45 -35 30 -30 30 122 4z m-1166 -335 c181 -91
284 -516 220 -904 -6 -36 -14 -68 -18 -72 -4 -5 -27 76 -51 180 -68 293 -102
366 -187 404 -50 22 -92 17 -60 -7 44 -32 87 -112 54 -99 -8 3 -19 -2 -26 -10
-10 -12 -9 -22 5 -51 9 -20 14 -39 10 -42 -3 -3 -6 1 -6 9 0 25 -47 68 -74 68
-23 0 -66 -33 -66 -52 0 -4 9 -8 21 -8 36 0 62 -77 57 -175 -3 -94 -27 -142
-67 -138 -21 3 -21 2 -4 -23 26 -41 61 -49 96 -23 24 17 31 19 38 8 8 -12 11
-12 19 1 12 18 13 47 2 54 -16 10 -1 64 16 62 14 -1 18 14 23 99 l5 100 2
-100 c3 -146 -23 -243 -86 -321 -25 -32 -26 -32 -59 -16 -18 8 -35 13 -39 10
-3 -4 7 -50 22 -103 l27 -96 21 24 c43 50 95 40 120 -25 19 -46 20 -62 4 -103
-10 -28 -23 -37 -106 -72 -114 -48 -128 -46 -197 28 -119 128 -184 378 -172
669 13 300 93 538 226 670 83 83 143 97 230 54z m2031 -1562 c9 -362 5 -601
-11 -585 -4 4 -13 63 -20 131 l-12 122 -41 0 c-23 0 -111 9 -196 20 -85 11
-159 20 -165 21 -5 0 1 5 15 9 14 4 91 8 171 9 81 1 161 4 178 7 31 7 32 8 29
58 -2 39 -7 51 -19 50 -137 -10 -432 -14 -424 -6 9 9 239 50 383 68 l52 7 0
78 c0 50 -4 79 -11 79 -9 0 -390 -100 -518 -136 l-54 -15 6 -157 c3 -91 11
-174 19 -197 12 -36 21 -44 104 -85 96 -48 394 -170 533 -219 46 -16 78 -32
72 -35 -9 -6 -435 -66 -467 -66 -11 0 -14 21 -14 113 l0 112 -73 29 c-39 16
-100 44 -134 62 -53 29 -63 39 -67 67 -10 65 -16 187 -17 366 -2 214 -23 175
161 298 63 42 117 79 120 83 3 4 14 9 25 12 11 3 29 9 40 13 27 10 4 -7 -169
-126 -77 -53 -142 -102 -144 -109 -6 -16 107 45 398 216 l225 132 7 -27 c4
-14 12 -194 18 -399z m-1359 226 c0 -79 3 -160 7 -181 l7 -38 36 53 c61 91
177 165 275 175 92 10 98 -4 19 -43 -92 -46 -155 -109 -197 -198 -32 -68 -33
-75 -33 -191 1 -100 5 -129 23 -176 49 -123 141 -214 257 -254 54 -19 192 -25
258 -12 57 12 45 -7 -25 -39 -87 -39 -225 -46 -325 -15 -83 25 -169 79 -240
151 l-53 53 0 -351 c0 -325 -1 -351 -17 -356 -40 -11 -1123 -199 -1127 -195
-2 2 -6 208 -8 458 l-3 454 35 12 c20 7 50 16 67 19 l30 7 7 -203 c20 -636 33
-687 35 -132 1 318 3 352 18 358 9 4 25 -1 37 -13 71 -66 184 -33 236 70 28
53 27 137 -1 173 -11 14 -25 26 -31 26 -6 0 -25 12 -43 28 -17 15 -40 32 -50
37 -14 8 41 26 254 83 150 40 279 76 287 79 12 4 14 -63 14 -485 l0 -491 -57
-11 c-334 -68 -527 -111 -539 -121 -8 -6 -14 -21 -14 -32 0 -19 4 -19 70 -13
38 3 135 17 216 31 81 14 149 24 151 21 2 -2 -6 -6 -19 -9 -258 -57 -468 -113
-468 -125 0 -20 83 -13 403 33 311 45 345 52 357 75 11 21 15 1157 4 1185 -18
45 -41 40 -397 -86 -224 -79 -350 -129 -365 -144 -16 -16 -22 -33 -21 -61 4
-76 2 -80 -42 -93 -23 -7 -47 -15 -55 -18 -8 -3 -14 0 -14 6 0 6 7 11 15 11 8
0 15 5 15 12 0 6 -3 8 -7 5 -3 -4 -17 0 -31 9 -17 11 -36 14 -64 10 l-39 -6 3
76 3 77 340 134 c187 74 441 174 565 223 124 49 228 89 233 89 4 1 7 -63 8
-141z m2002 -15 c13 -263 6 -417 -16 -359 -4 9 -19 96 -33 194 -15 97 -29 179
-31 181 -2 3 -69 -10 -149 -29 -100 -22 -149 -29 -156 -22 -7 7 -3 14 13 23
51 27 335 148 350 149 13 0 17 -21 22 -137z m-1563 -91 c0 -4 -16 -14 -35 -21
-53 -19 -89 -79 -89 -147 0 -45 5 -59 32 -93 32 -39 32 -41 11 -41 -13 0 -37
10 -55 22 -93 64 -92 207 2 269 29 19 134 28 134 11z m190 -253 l0 -119 -31 0
c-46 0 -99 56 -99 105 0 57 26 101 72 124 23 11 45 18 50 15 4 -3 8 -59 8
-125z m-219 -135 c-83 -105 -8 -271 124 -276 47 -2 44 -15 -6 -28 -127 -35
-252 87 -218 212 12 46 75 118 104 118 14 0 14 -3 -4 -26z m1044 -624 l0 -44
-40 -2 c-40 -3 -40 -3 -7 5 41 11 42 11 31 39 -6 16 -16 22 -38 22 -16 0 -32
-4 -35 -9 -3 -5 -50 -9 -103 -10 -88 -1 -123 -7 -188 -31 -11 -4 -30 -4 -42 1
-16 6 -28 3 -44 -10 -20 -16 -20 -18 -4 -34 9 -9 26 -17 38 -18 36 -2 -266
-46 -598 -89 -120 -15 -220 -13 -235 5 -22 26 -4 42 62 54 143 25 527 81 723
106 116 15 266 35 335 45 69 9 129 17 135 15 5 -1 9 -21 10 -45z m-1777 -593
c80 -85 96 -318 32 -463 -34 -78 -46 -84 -168 -84 -100 0 -132 -7 -132 -31 0
-3 136 -9 303 -13 328 -7 634 -23 651 -33 25 -16 -71 -23 -409 -33 -491 -14
-625 -16 -625 -9 0 17 23 69 30 69 20 0 40 34 40 66 0 47 -25 104 -46 104 -13
0 -12 4 7 19 22 18 24 18 81 -5 81 -34 123 -32 159 7 83 89 72 310 -18 389
-31 28 -40 31 -75 25 -29 -5 -39 -4 -34 4 5 7 41 11 95 11 78 0 90 -2 109 -23z
m762 -376 c0 -13 -86 -20 -332 -27 -168 -5 -228 -4 -228 4 0 6 10 14 23 17 53
12 537 18 537 6z m-1362 -83 c7 -7 12 -17 12 -24 0 -12 -459 -303 -491 -311
-24 -7 -33 38 -11 58 23 22 459 289 473 289 3 0 10 -5 17 -12z m861 -452 c56
-29 67 -102 22 -147 -35 -34 -9 -34 -372 -13 -203 11 -290 19 -311 30 -15 8
-28 17 -28 21 0 3 125 3 278 -1 l277 -7 0 42 c0 72 67 109 134 75z"/>
<path d="M2450 5395 c0 -3 16 -19 35 -36 73 -65 115 -203 115 -387 0 -184 -37
-318 -113 -407 -52 -61 -60 -81 -41 -99 8 -9 28 -16 44 -16 121 0 231 332 201
602 -19 167 -74 298 -140 332 -28 15 -101 22 -101 11z"/>
<path d="M2171 5245 c-34 -83 -46 -180 -46 -380 0 -187 2 -206 27 -297 43
-152 89 -231 120 -200 7 7 -1 33 -25 83 -69 144 -92 288 -84 537 3 97 10 194
17 215 15 50 8 84 -9 42z"/>
<path d="M2384 5208 c-11 -5 -28 -22 -37 -37 -15 -26 -15 -27 11 -26 39 0 65
-58 70 -154 7 -131 -27 -221 -78 -208 -28 7 -25 -5 9 -42 37 -40 66 -39 105 3
54 57 79 192 56 308 -24 124 -77 185 -136 156z"/>
<path d="M1330 4923 c-40 -146 -56 -371 -37 -533 l7 -65 -20 55 c-13 38 -20
83 -20 145 -1 50 -6 99 -11 110 -5 12 -6 -41 -3 -140 6 -156 15 -201 57 -305
l10 -25 6 30 c6 29 8 27 30 -33 26 -69 55 -112 76 -112 26 0 23 31 -10 102
-48 101 -72 203 -84 360 -11 134 -4 283 18 379 13 56 13 69 1 69 -5 0 -14 -17
-20 -37z"/>
<path d="M3372 3950 c-207 -101 -251 -130 -203 -130 30 0 413 110 439 126 16
10 22 24 22 48 0 42 -9 66 -24 66 -6 0 -111 -49 -234 -110z"/>
<path d="M1801 3640 c-36 -23 -70 -59 -71 -74 0 -5 9 -1 20 9 59 53 148 -3
169 -107 36 -169 -97 -297 -191 -184 -24 29 -23 9 2 -32 25 -41 25 -45 -1 -32
-24 14 -66 5 -91 -17 -26 -23 -22 -28 17 -29 19 0 43 -9 54 -18 47 -43 52
-154 11 -222 -21 -33 -21 -34 -3 -34 24 0 68 45 82 83 15 40 13 137 -4 167
-21 36 -18 41 13 24 92 -48 190 33 215 179 31 185 -104 360 -222 287z"/>
</g>
</svg>
